<?xml version="1.0" encoding="UTF-8" standalone="no"?>
<svg
   xmlns:dc="http://purl.org/dc/elements/1.1/"
   xmlns:cc="http://creativecommons.org/ns#"
   xmlns:rdf="http://www.w3.org/1999/02/22-rdf-syntax-ns#"
   xmlns:svg="http://www.w3.org/2000/svg"
   xmlns="http://www.w3.org/2000/svg"
   version="1.1"
   viewBox="0 0 3415 600"
   height="600"
   width="3415">
  <metadata>
    <rdf:RDF>
      <cc:Work
         rdf:about="">
        <dc:format>image/svg+xml</dc:format>
        <dc:type
           rdf:resource="http://purl.org/dc/dcmitype/StillImage" />
        <dc:title></dc:title>
      </cc:Work>
    </rdf:RDF>
  </metadata>
  <rect
     y="0"
     x="0"
     height="600"
     width="3415"
     style="fill:#25282e" />
  <path
     d="m 1594.2211,50.00011 -28.2398,24.01175 -28.2398,24.01009 -25.2951,143.45278 c -13.9129,78.89917 -25.1187,144.28884 -24.9006,145.31045 0.2177,1.02156 9.027,12.33973 19.5773,25.15029 l 19.1827,23.29266 109.7947,-0.002 109.7949,-0.003 8.4211,-48.00842 c 4.6309,-26.40529 8.6532,-48.90561 8.9388,-49.99933 0.4911,-1.88107 -4.1334,-1.98754 -85.4301,-1.98754 h -85.9495 l 0.5943,-2.55685 c 0.3273,-1.40621 7.5024,-41.93279 15.9434,-90.05766 8.4411,-48.1249 15.6072,-88.64978 15.9252,-90.05607 l 0.5776,-2.55681 h 85.7747 c 47.1754,0 85.7728,-0.38351 85.773,-0.85228 2e-4,-0.46874 3.8356,-22.58461 8.5227,-49.14704 4.6872,-26.56244 8.5227,-48.67997 8.5227,-49.14871 2e-4,-0.46873 -49.3407,-0.85224 -109.645,-0.85224 z m 685.6084,0 -4.2747,24.71588 c -2.3513,13.59367 -4.5248,25.61128 -4.8289,26.705 -0.5176,1.86112 -4.394,1.99125 -60.4197,2.03248 l -59.8653,0.0446 -26.7051,22.75328 c -14.6874,12.51473 -27.3506,23.38579 -28.1398,24.15824 -1.5487,1.51582 -42.559,231.36907 -42.0493,235.67615 0.1671,1.40942 8.9338,13.04182 19.484,25.85109 l 19.1828,23.29096 109.7948,-0.003 109.7948,-0.003 33.4648,-190.05301 c 18.4057,-104.52972 33.6784,-191.20572 33.9393,-192.61197 L 2379.6817,50 h -49.9261 z m 711.363,0 -4.2764,24.71588 c -2.3513,13.59367 -4.5248,25.61128 -4.8289,26.705 -0.5176,1.86112 -4.394,1.99125 -60.4197,2.03248 l -59.8653,0.0446 -26.705,22.75328 c -14.6875,12.51473 -27.3507,23.38579 -28.1399,24.15824 -1.5487,1.51582 -42.5591,231.36907 -42.0493,235.67615 0.1671,1.40942 8.9355,13.04182 19.4858,25.85109 l 19.181,23.29096 109.7947,-0.003 109.7948,-0.003 33.465,-190.05301 c 18.4056,-104.52972 33.6783,-191.20572 33.9394,-192.61197 L 3091.043,50 h -49.9261 z m -1745.3154,53.41005 -24.8173,140.76285 c -13.6495,77.41986 -24.6387,141.59789 -24.4213,142.61715 0.2174,1.01923 9.0271,12.33475 19.5773,25.14531 l 19.1811,23.29099 h 59.5108 59.5107 l -0.065,2.55682 c -0.038,1.40625 -0.4272,4.60274 -0.8705,7.10279 l -0.8057,4.54597 -83.9986,0.56765 -83.9985,0.56765 -8.1083,46.02262 c -4.4598,25.31239 -8.4438,47.68508 -8.8523,49.71631 l -0.7424,3.69373 109.9146,-0.0265 109.9129,-0.0302 27.7853,-23.66717 c 16.1102,-13.72309 28.1466,-24.81354 28.646,-26.39372 0.4737,-1.49893 16.2295,-90.16795 35.013,-197.04265 18.7834,-106.87474 34.4114,-195.46833 34.7284,-196.87458 l 0.5759,-2.55681 h -49.931 -49.9311 l -0.6409,3.12446 c -0.3518,1.71874 -9.3357,52.72712 -19.9651,113.35198 -10.6294,60.62482 -19.5966,111.37812 -19.9268,112.78437 l -0.6009,2.55678 h -35.7954 -35.7953 l 0.5842,-2.55678 c 0.3217,-1.40625 9.2898,-52.15955 19.9285,-112.78437 10.6388,-60.62486 19.6305,-111.63324 19.9818,-113.35198 l 0.6392,-3.12446 h -48.1117 z m 785.5372,0 -85.9412,0.0431 -85.9412,0.0446 -26.7049,22.75328 c -14.6875,12.51474 -27.3491,23.38583 -28.1384,24.15825 -1.5485,1.51582 -42.5605,231.36737 -42.0509,235.67444 0.1671,1.40942 8.9356,13.04349 19.4858,25.85276 l 19.1811,23.28929 h 85.7364 85.7347 l 28.3214,-24.00506 c 15.5765,-13.20332 28.3213,-24.14075 28.3213,-24.30474 0,-0.16365 9.2275,-52.60553 20.5062,-116.53801 11.2787,-63.93243 20.3547,-117.1541 20.1698,-118.27081 -0.1848,-1.11673 -8.9628,-12.53158 -19.5074,-25.36504 z m 582.9531,0 -85.9412,0.0431 -85.9412,0.0446 -26.7049,22.75328 c -14.6876,12.51474 -27.3492,23.38583 -28.1384,24.15825 -1.5486,1.51582 -42.5606,231.36907 -42.0508,235.6761 0.1666,1.40946 8.9354,13.04183 19.4857,25.8511 v 0.002 l 19.181,23.28929 109.7948,-0.002 109.7964,-0.003 8.4195,-48.00842 c 4.6311,-26.40529 8.6532,-48.9056 8.9389,-49.99932 0.4911,-1.88104 -4.136,-1.98754 -85.4851,-1.98754 -81.3723,0 -85.9723,-0.10772 -85.4235,-1.98917 0.319,-1.09375 0.9226,-4.41705 1.3417,-7.38584 l 0.7624,-5.39822 h 61.8146 61.8146 l 26.9763,-22.85487 c 14.837,-12.5706 27.5672,-23.43761 28.2898,-24.14823 1.421,-1.39752 22.314,-117.91965 21.7528,-121.31703 -0.1867,-1.13201 -8.9661,-12.5582 -19.5107,-25.3917 z m 711.363,0 -85.9429,0.0431 -85.9411,0.0446 -26.7035,22.75328 c -14.6874,12.51474 -27.3506,23.38583 -28.1399,24.15825 -1.5486,1.51582 -42.5606,231.36907 -42.0508,235.6761 0.167,1.40946 8.9354,13.04183 19.4857,25.8511 v 0.002 l 19.1827,23.28929 109.7948,-0.002 109.7947,-0.003 8.4195,-48.00842 c 4.6311,-26.40529 8.6548,-48.9056 8.9406,-49.99932 0.491,-1.88104 -4.1377,-1.98754 -85.4868,-1.98754 -81.3723,0 -85.9723,-0.10772 -85.4235,-1.98917 0.319,-1.09375 0.9226,-4.41705 1.3417,-7.38584 l 0.7624,-5.39822 h 61.8146 61.8146 l 26.9763,-22.85487 c 14.837,-12.5706 27.5672,-23.43761 28.2898,-24.14823 1.421,-1.39752 22.3157,-117.91965 21.7545,-121.31703 -0.1874,-1.13201 -8.9678,-12.5582 -19.5124,-25.3917 z m -2469.7571,0.0431 -110.07438,0.0446 -26.70504,22.75328 c -14.68743,12.51474 -27.35073,23.38583 -28.1399,24.15825 -1.54873,1.51582 -42.55898,231.36907 -42.04927,235.6761 0.16705,1.40946 8.93555,13.04183 19.48572,25.8511 l 19.18107,23.29091 h 109.7948 l 109.79476,-0.002 8.42117,-48.01016 c 4.63105,-26.40521 8.6533,-48.90386 8.9388,-49.99766 0.49108,-1.88103 -4.13805,-1.9892 -85.53001,-1.9892 -68.35142,0 -85.94644,-0.29178 -85.54498,-1.41989 0.27817,-0.78123 5.57518,-30.43797 11.77032,-65.90278 l 11.26431,-64.48126 85.79466,-0.0113 85.79473,-0.0113 8.42116,-48.00846 c 4.63106,-26.40525 8.6533,-48.90556 8.93881,-49.99932 0.49187,-1.88391 -5.2704,-1.9861 -109.55673,-1.94427 z m 278.3979,0.008 -110.0644,0.0465 -26.70507,22.73166 c -14.68746,12.50238 -27.35274,23.37585 -28.14492,24.1615 -0.8219,0.8152 -11.91859,60.92707 -25.84445,140.00373 -13.42215,76.21611 -24.70389,139.98077 -25.07039,141.69955 l -0.66584,3.12276 h 48.1816 48.18157 l 20.3746,-115.90713 20.3746,-115.90547 85.7947,-0.008 85.7963,-0.008 8.4362,-48.57444 c 4.6398,-26.71581 8.6566,-49.21307 8.9272,-49.99433 0.3915,-1.1302 -21.9986,-1.40996 -109.5717,-1.37159 z m 831.3533,99.95035 -0.6142,3.12612 c -0.3375,1.71874 -5.5725,31.24996 -11.6338,65.6248 l -11.0213,62.49874 -37.8494,0.29972 c -35.6934,0.28271 -37.8193,0.1852 -37.2919,-1.70453 0.3077,-1.10218 5.587,-30.76678 11.7304,-65.92111 l 11.1694,-63.91698 37.7546,-0.003 z m 507.1659,0 h 37.9994 c 35.6391,0 37.9633,0.12397 37.4516,1.98916 -0.3001,1.0938 -0.873,4.03355 -1.2734,6.53356 -0.4003,2.5 -0.9906,5.44146 -1.3117,6.53518 -0.5412,1.8421 -3.3523,1.9875 -38.1308,1.9875 h -37.5465 l 0.6275,-2.55681 c 0.3455,-1.40629 0.9786,-5.24145 1.4066,-8.52268 z m 711.3631,0 h 37.9976 c 35.639,0 37.965,0.12397 37.4533,1.98916 -0.3001,1.0938 -0.873,4.03355 -1.2735,6.53356 -0.4003,2.5 -0.9921,5.44146 -1.3133,6.53518 -0.5412,1.8421 -3.3524,1.9875 -38.1308,1.9875 h -37.5465 l 0.6292,-2.55681 c 0.3455,-1.40629 0.977,-5.24145 1.4049,-8.52268 z m -967.6202,0.003 c 32.032,-0.003 35.5108,0.17764 35.5108,1.84433 0,1.70468 -20.893,121.64978 -22.1941,127.41447 l -0.5758,2.55681 h -35.8504 c -33.5968,0 -35.8156,-0.12586 -35.296,-1.98916 0.305,-1.09376 5.5804,-30.75186 11.7237,-65.90618 l 11.1711,-63.91698 z m 711.3614,0 c 32.0319,-0.003 35.5123,0.17764 35.5123,1.84433 0,1.70468 -20.893,121.64978 -22.194,127.41447 l -0.5776,2.55681 h -35.8503 c -33.5968,0 -35.8157,-0.12586 -35.2959,-1.98916 0.305,-1.09376 5.5819,-30.75186 11.7253,-65.90618 l 11.1694,-63.91698 z m -233.8052,132.9504 c -32.5513,0 -50.0009,0.39764 -50.0009,1.13688 0,1.38376 -15.7986,91.57309 -16.6709,95.16962 l -0.6209,2.55681 h 50.1241 c 27.5676,0 50.1225,-0.17877 50.1225,-0.3978 0,-0.21921 3.8352,-22.16628 8.5227,-48.77086 4.6875,-26.60462 8.5227,-48.66851 8.5227,-49.03218 0,-0.36359 -22.4993,-0.66251 -49.9993,-0.66247 z"
     style="fill:#ffffff" />
  <path
     d="m 144.07216,82.53867 c 0,32.08762 0,32.53867 1.28864,32.53867 0.96653,0 1.2887,0.45101 1.2887,1.6108 v 1.61083 h -13.14437 c -11.1469,0 -13.3376,0.12888 -14.17523,1.03094 -0.90207,0.83762 -1.03094,3.02835 -1.03094,13.85311 v 12.82216 h -1.61083 c -1.1598,0 -1.61083,-0.32202 -1.61083,-1.28867 0,-1.28867 -0.45103,-1.28867 -32.538634,-1.28867 H 50 v 14.49744 14.4974 h 32.538666 c 32.087604,0 32.538634,0 32.538634,-1.28863 0,-0.96651 0.45103,-1.28867 1.61083,-1.28867 h 1.61083 v 8.37626 8.3763 h -1.61083 c -1.1598,0 -1.61083,-0.32201 -1.61083,-1.28866 0,-1.28863 -0.45103,-1.28863 -32.538634,-1.28863 H 50 v 14.4974 14.49739 h 32.538666 c 32.087604,0 32.538634,0 32.538634,-1.28863 0,-0.9665 0.45103,-1.28866 1.61083,-1.28866 h 1.61083 v 8.3763 8.3763 h -1.61083 c -1.1598,0 -1.61083,-0.32202 -1.61083,-1.28867 0,-1.28867 -0.45103,-1.28867 -32.538634,-1.28867 H 50 v 14.49744 14.4974 h 32.538666 c 32.087604,0 32.538634,0 32.538634,-1.28867 0,-0.96646 0.45103,-1.28863 1.61083,-1.28863 h 1.61083 v 8.37627 8.3763 h -1.61083 c -1.1598,0 -1.61083,-0.32202 -1.61083,-1.28867 0,-1.28867 -0.45103,-1.28867 -32.538634,-1.28867 H 50 v 14.49744 14.49743 h 32.538666 c 32.087604,0 32.538634,0 32.538634,-1.28866 0,-0.9665 0.45103,-1.28867 1.61083,-1.28867 h 1.61083 v 8.3763 8.37626 h -1.61083 c -1.1598,0 -1.61083,-0.32201 -1.61083,-1.28863 0,-1.28866 -0.45103,-1.28866 -32.538634,-1.28866 H 50 v 14.49743 14.4974 h 32.538666 c 32.087604,0 32.538634,0 32.538634,-1.28867 0,-0.96646 0.45103,-1.28863 1.61083,-1.28863 h 1.61083 v 8.37627 8.3763 h -1.61083 c -1.1598,0 -1.61083,-0.32239 -1.61083,-1.28867 0,-1.28867 -0.45103,-1.28867 -32.538634,-1.28867 H 50 v 14.49744 14.56184 l 34.149466,-0.19351 34.149494,-0.19352 v 7.21645 7.28095 h -1.61083 c -1.1598,0 -1.61083,-0.32239 -1.61083,-1.28863 0,-1.28867 -0.45103,-1.28867 -32.538634,-1.28867 H 50 v 14.4974 14.49744 h 32.538666 c 32.087604,0 32.538634,0 32.538634,-1.28863 0,-0.9665 0.45103,-1.28867 1.61083,-1.28867 h 1.61083 v 8.37627 8.3763 h -1.61083 c -1.1598,0 -1.61083,-0.32202 -1.61083,-1.28867 0,-1.28867 -0.45103,-1.28867 -32.538634,-1.28867 H 50 v 14.49744 14.4974 h 32.538666 c 32.087604,0 32.538634,0 32.538634,-1.28863 0,-0.9665 0.45103,-1.28867 1.61083,-1.28867 h 1.61083 v 12.37111 c 0,6.82991 0.25769,12.75772 0.51547,13.20877 1.03094,1.67527 4.44587,2.12628 15.97937,2.12628 h 11.8557 v 1.6108 c 0,1.15983 -0.32202,1.61084 -1.2887,1.61084 -1.28864,0 -1.28864,0.45105 -1.28864,32.53867 V 550 h 14.49744 14.4974 v -32.53867 c 0,-32.08762 0,-32.53867 -1.28867,-32.53867 -0.9665,0 -1.28867,-0.45101 -1.28867,-1.61083 v -1.6108 h 8.3763 8.3763 v 1.6108 c 0,1.15982 -0.32198,1.61083 -1.28866,1.61083 -1.28867,0 -1.28867,0.45105 -1.28867,32.53867 V 550 h 14.49743 14.49744 v -32.53867 c 0,-32.08762 0,-32.53867 -1.28867,-32.53867 -0.9665,0 -1.28867,-0.45101 -1.28867,-1.61083 v -1.6108 h 8.3763 8.37627 v 1.6108 c 0,1.15982 -0.32202,1.61083 -1.28867,1.61083 -1.28863,0 -1.28863,0.45105 -1.28863,32.53867 V 550 h 14.4974 14.49743 v -32.53867 c 0,-32.08762 0,-32.53867 -1.28867,-32.53867 -0.96649,0 -1.28866,-0.45101 -1.28866,-1.61083 v -1.6108 h 8.3763 8.3763 v 1.6108 c 0,1.15982 -0.32198,1.61083 -1.28867,1.61083 -1.28866,0 -1.28866,0.45105 -1.28866,32.53867 V 550 h 14.49743 14.4974 v -32.53867 c 0,-32.08762 0,-32.53867 -1.28863,-32.53867 -0.96651,0 -1.28867,-0.45101 -1.28867,-1.61083 v -1.6108 h 8.37627 8.37629 v 1.6108 c 0,1.15982 -0.32201,1.61083 -1.28866,1.61083 -1.28867,0 -1.28867,0.45105 -1.28867,32.53867 V 550 h 14.49743 14.49744 v -32.53867 c 0,-32.08762 0,-32.53867 -1.28867,-32.53867 -0.9665,0 -1.28866,-0.45101 -1.28866,-1.61083 v -1.6108 h 8.37629 8.3763 v 1.6108 c 0,1.15982 -0.32201,1.61083 -1.28866,1.61083 -1.28867,0 -1.28867,0.45105 -1.28867,32.53867 V 550 h 14.49743 14.4974 v -32.53867 c 0,-32.08762 0,-32.53867 -1.28866,-32.53867 -0.96647,0 -1.28864,-0.45101 -1.28864,-1.61083 v -1.6108 h 8.37627 8.3763 v 1.6108 c 0,1.15982 -0.32202,1.61083 -1.28867,1.61083 -1.28867,0 -1.28867,0.45105 -1.28867,32.53867 V 550 h 14.49744 14.49743 v -32.53867 c 0,-32.08762 0,-32.53867 -1.28867,-32.53867 -0.9665,0 -1.28866,-0.45101 -1.28866,-1.61083 v -1.6108 h 8.3763 8.3763 v 1.6108 c 0,1.15982 -0.32202,1.61083 -1.28867,1.61083 -1.28867,0 -1.28867,0.45105 -1.28867,32.53867 V 550 h 14.49744 14.4974 v -32.53867 c 0,-32.08762 0,-32.53867 -1.28863,-32.53867 -0.9665,0 -1.28867,-0.45101 -1.28867,-1.61083 v -1.6108 h 11.21132 c 12.62888,0 14.81961,-0.45101 15.78607,-3.35051 0.38661,-1.15983 0.70877,-6.89435 0.70877,-13.14437 v -11.21133 h 1.61084 c 1.15978,0 1.61083,0.3224 1.61083,1.28867 0,1.28863 0.45101,1.28863 32.53867,1.28863 h 32.53867 v -14.4974 -14.49743 h -32.53867 c -32.08766,0 -32.53867,0 -32.53867,1.28867 0,0.9665 -0.45105,1.28866 -1.61083,1.28866 h -1.61084 v -8.3763 -8.37626 h 1.61084 c 1.15978,0 1.61083,0.32239 1.61083,1.28866 0,1.28863 0.45101,1.28863 32.53867,1.28863 h 32.53867 v -14.49743 -14.4974 h -32.53867 c -32.08766,0 -32.53867,0 -32.53867,1.28867 0,0.9665 -0.45105,1.28863 -1.61083,1.28863 h -1.61084 v -8.37627 -8.37626 h 1.61084 c 1.15978,0 1.61083,0.32202 1.61083,1.28863 0,1.28867 0.45101,1.28867 32.53867,1.28867 h 32.53867 v -14.4974 -14.49744 h -32.53867 c -32.08766,0 -32.53867,0 -32.53867,1.28867 0,0.9665 -0.45105,1.28867 -1.61083,1.28867 h -1.61084 v -8.3763 -8.37627 h 1.61084 c 1.15978,0 1.61083,0.32202 1.61083,1.28863 0,1.28867 0.45101,1.28867 32.53867,1.28867 h 32.53867 v -14.4974 -14.49743 h -32.53867 c -32.08766,0 -32.53867,0 -32.53867,1.28866 0,0.96647 -0.45105,1.28863 -1.61083,1.28863 h -1.61084 v -8.37626 -8.3763 h 1.61084 c 1.15978,0 1.61083,0.32239 1.61083,1.28867 0,1.28866 0.45101,1.28866 32.53867,1.28866 h 32.53867 v -14.49743 -14.49744 h -32.53867 c -32.08766,0 -32.53867,0 -32.53867,1.28867 0,0.9665 -0.45105,1.28867 -1.61083,1.28867 h -1.61084 v -8.3763 -8.37627 h 1.61084 c 1.15978,0 1.61083,0.32239 1.61083,1.28863 0,1.28867 0.45101,1.28867 32.53867,1.28867 h 32.53867 v -14.4974 -14.49744 h -32.53867 c -32.08766,0 -32.53867,0 -32.53867,1.28867 0,0.9665 -0.45105,1.28867 -1.61083,1.28867 h -1.61084 v -8.3763 -8.3763 h 1.61084 c 1.15978,0 1.61083,0.32239 1.61083,1.28866 0,1.28863 0.45101,1.28863 32.53867,1.28863 h 32.53867 v -14.49739 -14.4974 h -32.53867 c -32.08766,0 -32.53867,0 -32.53867,1.28863 0,0.9665 -0.45105,1.28866 -1.61083,1.28866 h -1.61084 v -8.3763 -8.37626 h 1.61084 c 1.15978,0 1.61083,0.32239 1.61083,1.28867 0,1.28863 0.45101,1.28863 32.53867,1.28863 h 32.53867 v -14.4974 -14.49744 h -32.53867 c -32.08766,0 -32.53867,0 -32.53867,1.28867 0,0.9665 -0.45105,1.28867 -1.61083,1.28867 -1.48195,0 -1.61084,-0.25777 -1.61084,-2.57734 0,-1.41755 -0.3866,-3.5438 -0.90206,-4.70358 -0.45101,-1.15983 -5.09019,-6.18558 -10.18042,-11.27577 l -9.34276,-9.14952 h -3.60824 c -3.4794,0 -3.67268,-0.0642 -3.67268,-1.61083 0,-1.15979 0.32201,-1.6108 1.28867,-1.6108 1.28863,0 1.28863,-0.45105 1.28863,-32.53867 V 50 h -14.4974 -14.49744 v 32.53867 c 0,32.08762 0,32.53867 1.28867,32.53867 0.9665,0 1.28867,0.45101 1.28867,1.6108 v 1.61083 h -8.3763 -8.3763 v -1.61083 c 0,-1.15979 0.32201,-1.6108 1.28866,-1.6108 1.28867,0 1.28867,-0.45105 1.28867,-32.53867 V 50 h -14.49743 -14.49744 v 32.53867 c 0,32.08762 0,32.53867 1.28867,32.53867 0.9665,0 1.28867,0.45101 1.28867,1.6108 v 1.61083 h -8.3763 -8.37627 v -1.61083 c 0,-1.15979 0.32232,-1.6108 1.28864,-1.6108 1.28866,0 1.28866,-0.45105 1.28866,-32.53867 V 50 h -14.4974 -14.49743 v 32.53867 c 0,32.08762 0,32.53867 1.28867,32.53867 0.9665,0 1.28866,0.45101 1.28866,1.6108 v 1.61083 h -8.3763 -8.37629 v -1.61083 c 0,-1.15979 0.32231,-1.6108 1.28866,-1.6108 1.28867,0 1.28867,-0.45105 1.28867,-32.53867 V 50 h -14.49744 -14.49743 v 32.53867 c 0,32.08762 0,32.53867 1.28867,32.53867 0.9665,0 1.28866,0.45101 1.28866,1.6108 v 1.61083 h -8.37629 -8.37627 v -1.61083 c 0,-1.15979 0.32232,-1.6108 1.28867,-1.6108 1.28863,0 1.28863,-0.45105 1.28863,-32.53867 V 50 h -14.4974 -14.49743 v 32.53867 c 0,32.08762 0,32.53867 1.28866,32.53867 0.9665,0 1.28867,0.45101 1.28867,1.6108 v 1.61083 h -8.3763 -8.3763 v -1.61083 c 0,-1.15979 0.32232,-1.6108 1.28866,-1.6108 1.28867,0 1.28867,-0.45105 1.28867,-32.53867 V 50 h -14.49743 -14.4974 v 32.53867 c 0,32.08762 0,32.53867 1.28863,32.53867 0.9665,0 1.28867,0.45101 1.28867,1.6108 v 1.61083 h -8.37627 -8.3763 v -1.61083 c 0,-1.15979 0.32232,-1.6108 1.28867,-1.6108 1.28867,0 1.28867,-0.45105 1.28867,-32.53867 V 50 h -14.49744 -14.49743 v 32.53867 c 0,32.08762 0,32.53867 1.28867,32.53867 0.9665,0 1.28866,0.45101 1.28866,1.6108 v 1.61083 h -8.3763 -8.3763 v -1.61083 c 0,-1.15979 0.32232,-1.6108 1.28867,-1.6108 1.28867,0 1.28867,-0.45105 1.28867,-32.53867 V 50 H 158.5696 144.07216 Z M 229.1237,273.4536 v 146.71392 l -18.42784,18.36341 c -10.11596,10.11598 -19.26546,19.52318 -20.2964,20.87625 -1.73966,2.31961 -1.86856,2.89951 -1.86856,8.24746 v 5.67009 h -30.9278 -30.92787 v -49.29124 -49.29124 h 9.02063 9.02061 l 1.35313,2.70618 c 1.8041,3.54384 8.50513,10.24487 12.04893,12.04902 12.56447,6.37886 27.19073,3.02831 36.14693,-8.3119 4.05927,-5.15463 5.4768,-9.47164 5.4768,-17.07473 0,-7.60309 -1.41753,-11.9201 -5.4768,-17.07473 -8.9562,-11.34021 -23.58246,-14.69076 -36.14693,-8.31186 -3.5438,1.80412 -10.24483,8.50514 -12.04893,12.04898 l -1.35313,2.70618 h -9.02061 -9.02063 V 240.07731 126.67527 h 51.22423 51.22424 z m 81.18556,-137.24228 v 9.47169 l -7.6031,7.60305 -7.53866,7.53868 H 272.74483 250.3866 v -17.07473 -17.07474 h 29.96133 29.96133 z m 40.59277,15.59282 v 25.12887 l -2.70617,1.35307 c -3.54383,1.80412 -10.24487,8.50515 -12.04897,12.04895 -6.37886,12.56443 -3.02836,27.19075 8.31184,36.14691 5.15466,4.05929 9.47166,5.4768 17.07476,5.4768 7.60307,0 11.9201,-1.41751 17.07474,-5.4768 11.3402,-8.95616 14.69073,-23.58248 8.31186,-36.14691 -1.80413,-3.5438 -8.50516,-10.24483 -12.049,-12.04895 l -2.70616,-1.35307 v -25.12887 -25.12887 h 42.97679 43.04124 l 7.86085,7.86082 7.92525,7.92525 v 165.39949 165.4639 h -71.19847 -71.19846 v -25.12887 -25.12887 l 2.7062,-1.35307 c 3.5438,-1.80412 10.24483,-8.50515 12.04896,-12.04898 6.37887,-12.56444 3.02837,-27.19072 -8.31186,-36.14691 -5.15463,-4.05925 -9.47164,-5.4768 -17.07474,-5.4768 -7.6031,0 -11.9201,1.41755 -17.07473,5.4768 -11.3402,8.95619 -14.69073,23.58247 -8.31187,36.14691 1.80414,3.54383 8.50517,10.24486 12.04897,12.04898 l 2.7062,1.35307 v 25.12887 25.12887 H 260.05153 209.7938 v -1.80412 c 0,-1.41752 3.22166,-4.96135 18.68556,-20.42529 10.30927,-10.30926 19.39433,-19.71643 20.16754,-20.9407 l 1.41753,-2.25516 0.19332,-122.87369 0.129,-122.87368 26.28866,-0.19352 c 20.7474,-0.12888 26.54637,-0.38657 27.83504,-1.09534 2.31959,-1.22423 23.64689,-22.48709 25.32216,-25.19331 1.28867,-2.12629 1.41754,-3.22163 1.67527,-15.65719 l 0.19332,-13.33765 h 9.6005 9.60053 z m 16.43043,35.88919 c 4.18813,1.41751 8.76287,5.99225 10.1804,10.18038 2.25517,6.57218 0.83763,12.8866 -4.05927,17.71907 -3.22166,3.28611 -7.53867,5.15463 -11.9201,5.15463 -4.38146,0 -8.69846,-1.86852 -11.9201,-5.15463 -6.8299,-6.76547 -6.8299,-17.07473 0,-23.90464 4.76803,-4.76803 11.21134,-6.24998 17.71907,-3.99481 z m -190.07733,160.4381 c 4.18817,1.41755 8.7629,5.99229 10.18043,10.18042 2.25514,6.57215 0.83764,12.8866 -4.0593,17.71907 -6.76546,6.82987 -17.07473,6.82987 -23.84019,0 -6.82991,-6.76547 -6.82991,-17.07473 0,-23.90464 4.76806,-4.76802 11.21136,-6.24998 17.71906,-3.99485 z m 149.48453,32.2165 c 4.18817,1.41755 8.7629,5.99226 10.18043,10.18039 2.25514,6.57218 0.8376,12.8866 -4.05929,17.71907 -6.76547,6.8299 -17.07474,6.8299 -23.84021,0 -6.8299,-6.76547 -6.8299,-17.07474 0,-23.90461 4.76804,-4.76806 11.21134,-6.25001 17.71907,-3.99485 z"
     style="fill:#f9f9f9" />
</svg>
