<?xml version="1.0" encoding="UTF-8"?>
<svg width="3487" height="737" version="1.1" viewBox="0 0 3487 737" xmlns="http://www.w3.org/2000/svg">
  <g transform="translate(-46.347 -105.52)" stroke="#000">
    <g fill-rule="evenodd" stroke-linejoin="round" stroke-width="5">
      <path d="m395.93 133.02 313.55 181.03-322.09 185.96-313.55-181.03z" points="709.48267,314.04362 387.39677,500 73.846863,318.97188 395.93276,133.0155 " fill="#afddde"/>
      <path d="m709.48 628.88v-314.84l-322.09 185.96v314.84z" points="709.48267,314.04362 387.39677,500 387.39677,814.83686 709.48267,628.88049 " fill="#d7feff"/>
      <path d="m73.847 633.81 313.55 181.03v-314.84l-313.55-181.03z" points="387.39677,814.83686 387.39677,500 73.846863,318.97188 73.846863,633.80874 " fill="#e9ffff"/>
    </g>
    <g fill="none">
      <path transform="translate(46.347 105.52)" d="m27.5 423.34 313.55 181.03 322.09-185.96" stroke-width="5"/>
      <path d="m73.847 423.92 313.55 181.03 322.09-185.96" stroke-width="5"/>
      <g stroke-dasharray="210, 45, 0" stroke-linecap="round" stroke-linejoin="bevel" stroke-opacity=".5" stroke-width="15">
        <path d="m437.4 733.49 222.09-128.22"/>
        <path d="m437.4 628.55 222.09-128.22"/>
        <path d="m437.4 523.6 222.09-128.22"/>
      </g>
    </g>
  </g>
  <g transform="translate(41.706 -130.09)" fill="#bcfeff" stroke="#000" stroke-width="5">
    <g aria-label="cryeffect Media Group" stroke="none">
      <path d="m1309.5 288.99-22.5 22.5v158h46.75v-56.75h33.75v-46.75h-33.75v-30.25h53.5v-46.75zm119 0-22.5 22.5v158h46.75v-56.75h33.75v-46.75h-33.75v-30.25h53.5v-46.75zm349.25 0v158l22.5 22.5h102.75v-46.75h-78.5v-30.25h58.75v-46.75h-58.75v-56.75zm230 0v180.5h45v-133.75h11v133.75h46.75v-133.75h11v133.75h45v-158l-22.25-22.5zm384.5 0v25h-56l-22.5 22.5v110.5l22.5 22.5h102.75v-180.5zm375 0-22.5 22.5v135.5l22.5 22.5h80.25l22.5-22.5v-80.75h-70v46.75h25v9.75h-35.25v-87h80.25v-46.75zm-1986.5 25-22.5 22.5v110.5l22.5 22.5h102.75v-46.75h-80.25v-62h80.25v-46.75zm130.5 0-22.5 22.5v133h45v-108.75h80.25v-46.75zm103.25 0v133l22.5 22.5h56v7h-78.5v46.75h102.75l22.5-22.5v-186.75h-46.75v108.75h-33.5v-108.75zm159 0-22.5 22.5v110.5l22.5 22.5h102.75v-46.75h-80.25v-7h57.75l22.5-22.5v-56.75l-22.5-22.5zm360.25 0-22.5 22.5v110.5l22.5 22.5h102.75v-46.75h-80.25v-7h57.75l22.5-22.5v-56.75l-22.5-22.5zm136 0-22.5 22.5v110.5l22.5 22.5h102.75v-46.75h-80.25v-62h80.25v-46.75zm530.5 0-22.5 22.5v110.5l22.5 22.5h102.75v-46.75h-80.25v-7h57.75l22.5-22.5v-56.75l-22.5-22.5zm250.25 0v155.5h46.75v-155.5zm58 0v46.75h80.25v7h-57.75l-22.5 22.5v56.75l22.5 22.5h102.75v-133l-22.5-22.5zm394.5 0-22.5 22.5v133h45v-108.75h80.25v-46.75zm139 0-22.5 22.5v110.5l22.5 22.5h80.25l22.5-22.5v-110.5l-22.5-22.5zm113.75 0v155.5h102.75l22.5-22.5v-133h-45v108.75h-35.25v-108.75zm136.25 0v180.5h46.75v-25h56l22.5-22.5v-110.5l-22.5-22.5zm-2096 46.75h35.25v8.25h-35.25zm360.25 0h35.25v8.25h-35.25zm666.5 0h35.25v8.25h-35.25zm136 0h33.5v62h-33.5zm705.75 0h35.25v62h-35.25zm274.25 0h33.5v62h-33.5zm-785.25 53.75h35.25v8.25h-35.25z" color="#000000"/>
      <path d="m1308.5 286.49-0.7305 0.73242-23.232 23.232v161.54h51.75v-56.75h33.75v-51.75h-33.75v-25.25h53.5v-51.75zm119 0-0.7305 0.73242-23.232 23.232v161.54h51.75v-56.75h33.75v-51.75h-33.75v-25.25h53.5v109.79l23.963 23.965h106.29v-51.75h-80.25v-2h56.285l23.965-23.965v-58.82l-23.965-23.965h-82.322l-0.7305 0.73242-23.232 23.232v-48.965zm347.79 0v161.54l23.963 23.965h106.29v-51.75h-78.5v-25.25h58.75v-51.75h-58.75v-56.75zm230 0v185.5h50v-133.75h6v133.75h51.75v-133.75h6v133.75h50v-161.53l-23.707-23.973zm384.5 0v25h-54.537l-23.963 23.965v112.57l23.963 23.965h106.29v-185.5zm376.46 0-0.7305 0.73242-23.232 23.232v137.57l23.963 23.965h82.322l23.965-23.965v-84.285h-75v51.75h25v4.75h-30.25v-82h80.25v-51.75zm-1455.7 5h74.215v41.75h-53.5v35.25h33.75v41.75h-33.75v56.75h-41.75v-154.46zm119 0h74.215v41.75h-53.5v35.25h33.75v41.75h-33.75v56.75h-41.75v-154.46zm350.71 0h41.75v56.75h58.75v41.75h-58.75v35.25h78.5v41.75h-99.215l-21.035-21.035zm230 0h132.96l20.795 21.027v154.47h-40v-133.75h-16v133.75h-41.75v-133.75h-16v133.75h-40zm384.5 0h41.75v175.5h-99.215l-21.035-21.035v-108.43l21.035-21.035h57.465zm373.54 0h99.215v41.75h-80.25v92h40.25v-14.75h-25v-41.75h65v77.215l-21.037 21.035h-78.178l-21.035-21.035v-133.43zm-1988.6 20-0.73047 0.73242-23.232 23.232v112.57l23.963 23.965h106.29v-51.75h-80.25v-57h80.25v-51.75zm130.5 0-0.73047 0.73242-23.232 23.232v136.54h50v-108.75h75.75v84.785l23.963 23.965h54.537v2h-78.5v51.75h106.29l23.965-23.965v-190.29h-51.75v108.75h-28.5v-108.75h-50zm262.25 0-0.7305 0.73242-23.232 23.232v112.57l23.963 23.965h106.29v-51.75h-80.25v-2h56.285l23.965-23.965v-58.82l-23.965-23.965zm496.25 0-0.7305 0.73242-23.232 23.232v112.57l23.963 23.965h106.29v-51.75h-80.25v-57h80.25v-51.75zm530.5 0-0.7305 0.73242-23.232 23.232v112.57l23.963 23.965h106.29v-51.75h-80.25v-2h56.285l23.965-23.965v-58.82l-23.965-23.965zm248.79 0v160.5h51.75v-160.5zm58 0v51.75h80.25v2h-56.287l-23.963 23.965v58.82l23.963 23.965h106.29v-136.54l-23.965-23.965zm395.96 0-0.7305 0.73242-23.232 23.232v136.54h50v-108.75h80.25v-51.75zm139 0-0.7305 0.73242-23.232 23.232v112.57l23.963 23.965h82.322l23.965-23.965v-112.57l-23.965-23.965zm112.29 0v160.5h106.29l23.965-23.965v-136.54h-50v108.75h-30.25v-108.75zm136.25 0v185.5h51.75v-25h54.535l23.965-23.965v-112.57l-23.965-23.965zm-2507.7 5h99.215v41.75h-80.25v67h80.25v41.75h-99.215l-21.035-21.035v-108.43zm130.5 0h99.215v41.75h-80.25v108.75h-40v-129.46zm104.71 0h40v108.75h38.5v-108.75h41.75v183.21l-21.037 21.035h-99.213v-41.75h78.5v-12h-57.465l-21.035-21.035zm157.54 0h78.178l21.037 21.035v54.68l-21.037 21.035h-59.213v12h80.25v41.75h-99.215l-21.035-21.035v-108.43zm360.25 0h78.178l21.037 21.035v54.68l-21.037 21.035h-59.213v12h80.25v41.75h-99.215l-21.035-21.035v-108.43zm136 0h99.215v41.75h-80.25v67h80.25v41.75h-99.215l-21.035-21.035v-108.43zm530.5 0h78.178l21.037 21.035v54.68l-21.037 21.035h-59.213v12h80.25v41.75h-99.215l-21.035-21.035v-108.43zm251.71 0h41.75v150.5h-41.75zm58 0h99.213l21.037 21.035v129.46h-99.215l-21.035-21.035v-54.68l21.035-21.035h59.215v-12h-80.25zm393.04 0h99.215v41.75h-80.25v108.75h-40v-129.46zm139 0h78.178l21.037 21.035v108.43l-21.037 21.035h-78.178l-21.035-21.035v-108.43zm115.21 0h40v108.75h40.25v-108.75h40v129.46l-21.037 21.035h-99.213zm136.25 0h99.213l21.037 21.035v108.43l-21.037 21.035h-57.463v25h-41.75zm-2101 41.75v13.25h40.25v-13.25zm360.25 0v13.25h40.25v-13.25zm666.5 0v13.25h40.25v-13.25zm136 0v67h38.5v-67zm705.75 0v67h40.25v-67zm274.25 0v67h38.5v-67zm-2137.8 5h30.25v3.25h-30.25zm360.25 0h30.25v3.25h-30.25zm666.5 0h30.25v3.25h-30.25zm136 0h28.5v57h-28.5zm705.75 0h30.25v57h-30.25zm274.25 0h28.5v57h-28.5zm-790.25 48.75v13.25h40.25v-13.25zm5 5h30.25v3.25h-30.25z" color="#000000" fill="#000"/>
    </g>
    <g aria-label="Der letzte Schrei in Sachen personalisierter IT" stroke="none">
      <path d="m758.21 565.78v86.443h49.209l10.775-10.775v-64.893l-10.775-10.775zm238.5 0v86.443h22.389v-86.443zm92.908 0v75.668l10.775 10.775h49.209v-22.389h-37.596v-14.488h28.137v-22.389h-28.137v-27.178zm127.03 0v75.668l10.775 10.775h49.209v-22.389h-37.596v-14.488h28.137v-22.389h-28.137v-27.178zm186.06 0-10.775 10.775v32.566l10.775 10.775h27.658v9.9375h-38.434v22.389h49.209l10.775-10.775v-33.166l-10.775-10.775h-27.656v-9.3379h38.432v-22.389zm116.62 0v86.443h22.391v-52.082h16.043v52.082h21.551v-63.695l-10.775-10.775h-26.818v-11.973zm424.08 0-10.777 10.775v32.566l10.777 10.775h27.656v9.9375h-38.434v22.389h49.209l10.775-10.775v-33.166l-10.775-10.775h-27.656v-9.3379h38.432v-22.389zm181.87 0v86.443h22.391v-52.082h16.043v52.082h21.551v-63.695l-10.775-10.775h-26.818v-11.973zm694.9 0v86.443h22.389v-86.443zm273.94 0v75.668l10.775 10.775h49.209v-22.389h-37.596v-14.488h28.137v-22.389h-28.137v-27.178zm235.51 0v86.443h22.389v-86.443zm27.775 0v22.389h18.799v64.055h22.389v-64.055h18.797v-22.389zm-2523.1 11.973-10.775 10.775v52.92l10.775 10.775h49.209v-22.389h-38.434v-3.3535h27.658l10.775-10.775v-27.178l-10.775-10.775zm65.133 0-10.775 10.775v63.695h21.551v-52.082h38.434v-22.389zm135.89 0-10.775 10.775v52.92l10.775 10.775h49.209v-22.389h-38.434v-3.3535h27.658l10.775-10.775v-27.178l-10.775-10.775zm116.62 0v22.389h29.334l-29.334 29.693v22.389h59.984v-22.389h-29.334l29.334-29.693v-22.389zm137.81 0-10.777 10.775v52.92l10.777 10.775h49.207v-22.389h-38.432v-3.3535h27.656l10.775-10.775v-27.178l-10.775-10.775zm177.91 0-10.775 10.775v52.92l10.775 10.775h49.209v-22.389h-38.432v-29.693h38.432v-22.389zm127.51 0-10.775 10.775v63.695h21.551v-52.082h38.432v-22.389zm66.568 0-10.775 10.775v52.92l10.775 10.775h49.207v-22.389h-38.432v-3.3535h27.656l10.775-10.775v-27.178l-10.775-10.775zm54.355 0v74.471h22.391v-74.471zm75.67 0v74.471h22.389v-74.471zm27.775 0v74.471h21.551v-52.082h16.883v52.082h21.551v-63.695l-10.775-10.775zm178.04 0v22.389h38.434v3.3516h-27.656l-10.777 10.775v27.18l10.777 10.775h49.207v-63.695l-10.775-10.775zm76.027 0-10.775 10.775v52.92l10.775 10.775h49.209v-22.389h-38.434v-29.693h38.434v-22.389zm127.51 0-10.775 10.775v52.92l10.775 10.775h49.207v-22.389h-38.432v-3.3535h27.656l10.775-10.775v-27.178l-10.775-10.775zm54.355 0v74.471h21.551v-52.082h16.883v52.082h21.551v-63.695l-10.775-10.775zm113.14 0v86.443h22.391v-11.973h26.818l10.775-10.775v-52.92l-10.775-10.775zm76.027 0-10.775 10.775v52.92l10.775 10.775h49.209v-22.389h-38.434v-3.3535h27.658l10.775-10.775v-27.178l-10.775-10.775zm65.133 0-10.775 10.775v63.695h21.551v-52.082h38.434v-22.389zm60.223 0-10.775 10.775v26.58l10.775 10.775h27.658v3.9512h-38.434v22.389h49.209l10.775-10.775v-27.18l-10.775-10.775h-27.658v-3.3516h38.434v-22.389zm65.252 0-10.775 10.775v52.92l10.775 10.775h38.434l10.775-10.775v-52.92l-10.775-10.775zm54.476 0v74.471h21.551v-52.082h16.883v52.082h21.551v-63.695l-10.775-10.775zm65.252 0v22.389h38.432v3.3516h-27.656l-10.775 10.775v27.18l10.775 10.775h49.209v-63.695l-10.777-10.775zm93.029 0v74.471h22.389v-74.471zm38.551 0-10.775 10.775v26.58l10.775 10.775h27.658v3.9512h-38.434v22.389h49.209l10.775-10.775v-27.18l-10.775-10.775h-27.656v-3.3516h38.432v-22.389zm54.476 0v74.471h22.391v-74.471zm38.553 0-10.775 10.775v52.92l10.775 10.775h49.209v-22.389h-38.434v-3.3535h27.658l10.775-10.775v-27.178l-10.775-10.775zm65.133 0-10.775 10.775v63.695h21.551v-52.082h38.432v-22.389zm122.48 0-10.775 10.775v52.92l10.775 10.775h49.209v-22.389h-38.432v-3.3535h27.656l10.775-10.775v-27.178l-10.775-10.775zm65.133 0-10.775 10.775v63.695h21.551v-52.082h38.434v-22.389zm-2451.7 10.416h16.043v41.666h-16.043zm64.412 11.973h16.883v3.9512h-16.883zm201.02 0h16.883v3.9512h-16.883zm254.42 0h16.881v3.9512h-16.881zm371.99 0h16.881v3.9512h-16.881zm539.38 0h16.881v3.9512h-16.881zm179.11 0h16.043v29.693h-16.043zm64.412 0h16.883v3.9512h-16.883zm190.61 0h16.883v29.693h-16.883zm344.34 0h16.883v3.9512h-16.883zm187.62 0h16.881v3.9512h-16.881zm-1158.8 25.742h16.881v3.9512h-16.881zm757.4 0h16.881v3.9512h-16.881z" color="#000000"/>
      <path d="m755.71 563.28v91.443h52.744l12.24-12.24v-66.963l-12.24-12.24zm238.5 0v91.443h27.389v-91.443zm92.908 0v79.203l12.238 12.24h115v-12.029l12.027 12.029h52.746v-9.5137l9.5136 9.5137h52.744v-27.389h-10.594l10.594-10.594v-29.248l-12.24-12.24h-40.504l-0.7304 0.73242-11.51 11.508v39.842h-34.869v-9.4883h28.137v-27.389h-28.137v-27.178h-27.389v11.973h-64.773v27.389h25.848l-24.393 24.693h-36.324v-9.4883h28.137v-27.389h-28.137v-27.178zm314.55 0-0.7304 0.73242-11.508 11.508v34.637l12.238 12.24h26.195v4.9375h-38.434v27.389h52.744l12.193-12.193 12.193 12.193h77.65v-52.082h11.043v52.082h26.551v-67.23l-12.24-12.24h-25.354v-11.973h-27.391v11.973h-50.26l-0.7305 0.73242-11.416 11.416v-24.121zm540.7 0-0.7324 0.73242-11.51 11.508v34.637l12.242 12.24h26.191v4.9375h-38.434v27.389h52.744l12.195-12.195 12.193 12.195h52.744v-67.23l-12.24-12.24h-52.652v-11.973zm180.4 0v11.973h-50.26l-0.7305 0.73242-11.508 11.508v54.99l12.238 12.24h77.65v-52.082h11.043v52.082h26.551v-67.23l-12.24-12.24h-25.354v-11.973zm694.9 0v91.443h27.389v-91.443zm273.94 0v11.973h-47.984l-0.7305 0.73242-11.508 11.508v67.23h26.551v-52.082h33.672v39.842l12.238 12.24h52.746v-9.5137l9.5118 9.5137h52.746v-27.389h-10.594l10.594-10.594v-29.248l-12.24-12.24h-40.506l-0.7305 0.73242-11.508 11.508v39.842h-34.869v-9.4883h28.137v-27.389h-28.137v-27.178zm235.51 0v91.443h27.389v-91.443zm27.775 0v27.389h18.799v64.055h27.389v-64.055h18.797v-27.389zm-2594.2 5h45.672l9.3125 9.3105v62.822l-9.3125 9.3106h-45.672zm238.5 0h17.389v81.443h-17.389zm92.908 0h17.389v27.178h28.137v17.389h-28.137v19.488h37.596v17.389h-45.674l-9.3106-9.3106zm127.03 0h17.389v27.178h28.137v17.389h-28.137v19.488h37.596v17.389h-45.674l-9.3105-9.3106zm184.59 0h45.674v17.389h-38.432v14.338h29.119l9.3125 9.3106v31.096l-9.3125 9.3106h-45.672v-17.389h38.434v-14.938h-29.123l-9.3106-9.3105v-30.496zm118.08 0h17.391v11.973h28.281l9.3125 9.3106v60.16h-16.551v-52.082h-21.043v52.082h-17.391zm422.61 0h45.672v17.389h-38.432v14.338h29.119l9.3125 9.3106v31.096l-9.3125 9.3106h-45.672v-17.389h38.434v-14.938h-29.121l-9.3125-9.3105v-30.496zm183.33 0h17.391v11.973h28.281l9.3125 9.3106v60.16h-16.551v-52.082h-21.043v52.082h-17.391zm694.9 0h17.389v81.443h-17.389zm273.94 0h17.389v27.178h28.137v17.389h-28.137v19.488h37.596v17.389h-45.674l-9.3105-9.3106zm235.51 0h17.389v81.443h-17.389zm27.775 0h54.984v17.389h-18.797v64.055h-17.389v-64.055h-18.799zm-2526.7 6.9726-0.73047 0.73242-11.508 11.508v54.99l12.238 12.24h52.746v-27.389h-10.594l10.594-10.594v-29.248l-12.24-12.24zm65.133 0-0.73046 0.73242-11.508 11.508v67.23h26.551v-52.082h38.434v-27.389zm135.89 0-0.7305 0.73242-11.508 11.508v54.99l12.238 12.24h52.746v-27.389h-10.594l10.594-10.594v-29.248l-12.24-12.24zm559.85 0-0.7304 0.73242-11.508 11.508v67.23h26.551v-52.082h38.432v-27.389zm66.568 0-0.7305 0.73242-11.508 11.508v54.99l12.238 12.24h52.744v-27.389h-10.594l10.594-10.594v-29.248l-12.24-12.24zm52.893 0v79.471h27.391v-79.471zm75.67 0v79.471h27.389v-79.471zm27.775 0v79.471h26.551v-52.082h11.883v52.082h26.551v-67.23l-12.24-12.24zm383.04 0-0.7305 0.73242-11.508 11.508v54.99l12.238 12.24h52.744v-27.389h-10.594l10.594-10.594v-29.248l-12.24-12.24zm52.893 0v79.471h26.551v-52.082h11.883v52.082h26.551v-67.23l-12.24-12.24zm113.14 0v91.443h27.391v-11.973h25.354l12.24-12.24v-54.99l-12.24-12.24zm77.49 0-0.7305 0.73242-11.508 11.508v54.99l12.238 12.24h52.746v-27.389h-10.594l10.594-10.594v-29.248l-12.24-12.24zm65.133 0-0.7305 0.73242-11.508 11.508v67.23h26.551v-52.082h33.672v13.502l11.189 11.191h-11.189v27.389h52.744l12.24-12.24v-29.25l-10.592-10.592h10.592v-27.389h-52.746l-0.7304 0.73242-6.7461 6.7461v-7.4785zm125.47 0-0.7305 0.73242-11.508 11.508v54.99l12.238 12.24h40.506l12.24-12.24v-54.99l-12.24-12.24zm53.014 0v79.471h26.551v-52.082h11.883v52.082h26.551v-67.23l-12.24-12.24zm65.252 0v27.389h10.59l-10.59 10.592v29.25l12.238 12.24h52.746v-67.23l-12.242-12.24zm93.029 0v79.471h27.389v-79.471zm40.014 0-0.7305 0.73242-11.508 11.508v28.65l11.19 11.191h-11.19v27.389h52.744l12.24-12.24v-29.25l-10.592-10.592h10.592v-27.389zm53.014 0v79.471h27.391v-79.471zm40.016 0-0.7305 0.73242-11.508 11.508v54.99l12.238 12.24h52.746v-27.389h-10.594l10.594-10.594v-29.248l-12.24-12.24zm252.75 0-0.7305 0.73242-11.508 11.508v67.23h26.551v-52.082h38.434v-27.389zm-2396 5h36.361l9.3125 9.3106v25.107l-9.3125 9.3106h-29.121v8.3535h38.434v17.389h-45.674l-9.3106-9.3106v-50.85zm65.133 0h45.674v17.389h-38.434v52.082h-16.551v-60.16zm135.89 0h36.361l9.3125 9.3106v25.107l-9.3125 9.3106h-29.121v8.3535h38.434v17.389h-45.674l-9.3106-9.3106v-50.85zm118.08 0h54.984v18.861l-32.818 33.221h32.818v17.389h-54.984v-18.861l32.816-33.221h-32.816zm136.34 0h36.359l9.3125 9.3106v25.107l-9.3125 9.3106h-29.119v8.3535h38.432v17.389h-45.672l-9.3125-9.3106v-50.85zm177.91 0h45.674v17.389h-38.432v34.693h38.432v17.389h-45.674l-9.3106-9.3106v-50.85zm127.51 0h45.672v17.389h-38.432v52.082h-16.551v-60.16zm66.568 0h36.359l9.3125 9.3106v25.107l-9.3125 9.3106h-29.119v8.3535h38.432v17.389h-45.672l-9.3105-9.3106v-50.85zm55.82 0h17.391v69.471h-17.391zm75.67 0h17.389v69.471h-17.389zm27.775 0h45.672l9.3125 9.3106v60.16h-16.551v-52.082h-21.883v52.082h-16.551zm178.04 0h45.672l9.3125 9.3106v60.16h-45.672l-9.3125-9.3106v-25.109l9.3125-9.3105h29.121v-8.3516h-38.434zm74.562 0h45.674v17.389h-38.434v34.693h38.434v17.389h-45.674l-9.3105-9.3106v-50.85zm127.51 0h36.359l9.3125 9.3106v25.107l-9.3125 9.3106h-29.119v8.3535h38.432v17.389h-45.672l-9.3105-9.3106v-50.85zm55.82 0h45.672l9.3125 9.3106v60.16h-16.551v-52.082h-21.883v52.082h-16.551zm113.14 0h45.672l9.3125 9.3106v50.85l-9.3125 9.3106h-28.281v11.973h-17.391zm74.562 0h36.361l9.3125 9.3106v25.107l-9.3125 9.3106h-29.121v8.3535h38.434v17.389h-45.674l-9.3105-9.3106v-50.85zm65.133 0h45.674v17.389h-38.434v52.082h-16.551v-60.16zm60.223 0h45.674v17.389h-38.434v8.3516h29.121l9.3125 9.3105v25.109l-9.3125 9.3106h-45.672v-17.389h38.434v-8.9512h-29.123l-9.3105-9.3105v-24.51zm65.252 0h36.361l9.3125 9.3106v50.85l-9.3125 9.3106h-36.361l-9.3106-9.3106v-50.85zm55.941 0h45.672l9.3125 9.3106v60.16h-16.551v-52.082h-21.883v52.082h-16.551zm65.252 0h45.67l9.3145 9.3106v60.16h-45.674l-9.3106-9.3106v-25.109l9.3106-9.3105h29.121v-8.3516h-38.432zm93.029 0h17.389v69.471h-17.389zm37.086 0h45.674v17.389h-38.432v8.3516h29.119l9.3125 9.3105v25.109l-9.3125 9.3106h-45.672v-17.389h38.434v-8.9512h-29.123l-9.3106-9.3105v-24.51zm55.941 0h17.391v69.471h-17.391zm37.088 0h36.361l9.3125 9.3106v25.107l-9.3125 9.3106h-29.121v8.3535h38.434v17.389h-45.674l-9.3105-9.3106v-50.85zm65.133 0h45.672v17.389h-38.432v52.082h-16.551v-60.16zm122.48 0h36.361l9.3125 9.3106v25.107l-9.3125 9.3106h-29.119v8.3535h38.432v17.389h-45.674l-9.3105-9.3106v-50.85zm65.133 0h45.674v17.389h-38.434v52.082h-16.551v-60.16zm-2455.2 5.416v46.666h21.043v-46.666zm5 5h11.043v36.666h-11.043zm632.88 0h38.34v16.486l-12.148-12.148h-26.191zm540.69 0h38.34v11.973h10.592l-10.5 10.5v-5.8945l-12.24-12.24h-26.191zm-1114.2 6.9726v8.9512h21.883v-8.9512zm201.02 0v8.9512h21.883v-8.9512zm254.42 0v8.9512h21.881v-8.9512zm371.99 0v8.9512h21.881v-8.9512zm539.38 0v8.9512h21.881v-8.9512zm179.11 0v34.693h21.043v-34.693zm64.412 0v8.9512h21.883v-8.9512zm190.61 0v34.693h21.883v-34.693zm344.34 0v8.9512h21.883v-8.9512zm187.62 0v8.9512h21.881v-8.9512zm-1961.3 3.7402v25.953h-25.641zm266.73 1.2598h35.945v24.693h-35.945zm605.94 0h35.947v24.693h-35.947zm306.62 0h11.043v24.693h-11.043zm255.02 0h11.883v24.693h-11.883zm-631.89 20.742v8.9512h21.881v-8.9512zm757.4 0v8.9512h21.881v-8.9512z" color="#000000" fill="#000"/>
    </g>
  </g>
  <path transform="translate(266.05 88.528)" d="m-208.28 124.69 94.427 54.518 97.137-56.082-94.427-54.518zm194.27-112.16 94.427 54.518 97.137-56.082-94.427-54.518zm-166.91 111.94 69.384-40.059 67.448 38.941-69.384 40.059zm97.137-56.082 13.49 7.7882 13.877-8.0117-13.49-7.7882zm27.366-0.2235 13.49 7.7882-13.877 8.0117 13.49 7.7882 27.753-16.023-26.979-15.576zm40.856 7.5647 13.49 7.7882-27.753 16.023 26.979 15.576 13.877-8.0117-13.49-7.7882 13.877-8.0117 26.979 15.576 13.877-8.0117-26.979-15.576 13.877-8.0117 13.49 7.7882 13.877-8.0117-26.979-15.576-27.753 16.023-13.49-7.7882zm13.877-8.0117 27.753-16.023-40.469-23.365-27.753 16.023 13.49 7.7882 13.877-8.0117 13.49 7.7882-13.877 8.0117zm53.958 31.153 13.49 7.7882 13.877-8.0117-13.49-7.7882zm13.49 7.7882-13.877 8.0117-13.49-7.7882-55.507 32.047 13.49 7.7882 13.877-8.0117 13.49 7.7882-13.877 8.0117 13.49 7.7882 27.753-16.023 13.49 7.7882 13.877-8.0117-13.49-7.7882 13.877-8.0117 26.979 15.576 41.63-24.035-13.49-7.7882-13.877 8.0117-13.49-7.7882-13.877 8.0117zm40.856 7.5647 13.877-8.0117 13.49 7.7882 13.877-8.0117-13.49-7.7882 27.753-16.023-13.49-7.7882 27.753-16.023 13.49 7.7882-27.753 16.023 26.979 15.576-13.877 8.0117 13.49 7.7882-69.384 40.059-13.49-7.7882-27.753 16.023 26.979 15.576 27.753-16.023 13.49 7.7882-27.753 16.023 67.448 38.941 13.877-8.0117-13.49-7.7882 13.877-8.0117 13.49 7.7882 13.877-8.0117-13.49-7.7882 27.753-16.023 13.49 7.7882 41.63-24.035-13.49-7.7882-27.753 16.023-13.49-7.7882-13.877 8.0117-13.49-7.7882-27.753 16.023 13.49 7.7882-27.753 16.023-13.49-7.7882 27.753-16.023-13.49-7.7882 13.877-8.0117-13.49-7.7882 13.877-8.0117 13.49 7.7882 41.63-24.035 13.49 7.7882 13.877-8.0117-13.49-7.7882 13.877-8.0117-13.49-7.7882 13.877-8.0117-13.49-7.7882 13.877-8.0117-13.49-7.7882-13.877 8.0117-13.49-7.7882-13.877 8.0117-13.49-7.7882 13.877-8.0117-13.49-7.7882 13.877-8.0117-13.49-7.7882 13.877-8.0117-13.49-7.7882-13.877 8.0117-13.49-7.7882-13.877 8.0117 13.49 7.7882-13.877 8.0117-13.49-7.7882-13.877 8.0117 13.49 7.7882-13.877 8.0117-13.49-7.7882-13.877 8.0117 13.49 7.7882-13.877 8.0117-13.49-7.7882-13.877 8.0117 26.979 15.576-13.877 8.0117zm151.48-40.729 13.877-8.0117-26.979-15.576-13.877 8.0117zm12.715 39.388 26.979 15.576-27.753 16.023 13.49 7.7882 13.877-8.0117 13.49 7.7882 13.877-8.0117-13.49-7.7882 13.877-8.0117-26.979-15.576 13.877-8.0117-13.49-7.7882zm54.346 15.353 13.49 7.7882 13.877-8.0117-13.49-7.7882zm-55.12 16.247-13.49-7.7882-27.753 16.023 13.49 7.7882zm-94.814-38.718-13.49-7.7882-13.877 8.0117 13.49 7.7882zm-151.87 56.529-13.877 8.0117 13.49 7.7882 13.877-8.0117zm13.49 7.7882 13.49 7.7882 13.877-8.0117-13.49-7.7882zm-27.366 0.2235-13.49-7.7882 13.877-8.0117-13.49-7.7882-13.877 8.0117-13.49-7.7882-69.384 40.059 13.49 7.7882 27.753-16.023 13.49 7.7882 13.877-8.0117-13.49-7.7882 13.877-8.0117 13.49 7.7882-13.877 8.0117 13.49 7.7882-13.877 8.0117 13.49 7.7882-13.877 8.0117-13.49-7.7882-13.877 8.0117 26.979 15.576 41.63-24.035-13.49-7.7882 13.877-8.0117-13.49-7.7882zm3.8712-158 69.384-40.059 67.448 38.941-69.384 40.059zm-166.91 111.94 40.469 23.365 41.63-24.035-40.469-23.365zm194.27-112.16 40.469 23.365 41.63-24.035-40.469-23.365zm-60.152 221.65 94.427 54.518 97.137-56.082-94.427-54.518zm222.03-128.19 27.753-16.023 13.49 7.7882-27.753 16.023zm-194.66 127.96 69.384-40.059 67.448 38.941-69.384 40.059zm180.4-104.15 13.877-8.0117 13.49 7.7882-13.877 8.0117zm-153.03 103.93 40.469 23.365 41.63-24.035-40.469-23.365z" fill-opacity=".5" style="paint-order:stroke fill markers"/>
</svg>
